<?xml version="1.0" encoding="utf-8"?>
<?xml-stylesheet type="text/xsl" href="rss1.xsl"?>
<rss version="2.0" xmlns:atom="http://www.w3.org/2005/Atom" xmlns:content="http://purl.org/rss/1.0/modules/content/" xmlns:dc="http://purl.org/dc/elements/1.1/" xmlns:media="http://search.yahoo.com/mrss/">
<channel>
 <title>Getty</title>
 <link>http://www.gettyimg.com/</link>
 <atom:link href="http://www.gettyimg.com/" rel="self" type="application/rss+xml" />

 
                <item>
                <title><![CDATA[【HD Live Performances】PACK - Top Of The Pops - Groups &amp; Solo CT ART HD 1080i AC3 DD 2.0 MPEG]]></title>
                <link><![CDATA[https://sharemania.us/threads/top-of-the-pops-groups-solo-ct-art-hd-1080i-ac3-dd-2-0-mpeg.236717/]]></link>
                <description><![CDATA[<article>
<blockquote class="messageText SelectQuoteContainer ugc baseHtml">
<img src="https://cdn1.umg3.net/396/files/2017/06/TOTP_2001-06logo.png" class="bbCodeImage LbImage" alt="[​IMG]" data-url="https://cdn1.umg3.net/396/files/2017/06/TOTP_2001-06logo.png" style=""> <br>
Please, if you have any of these videos, could you share them with me? I would appreciate it<br>
<b>Lana Del Rey Ft. The Weeknd - Lust For Life VH1 HD 1080i<br>
Coldplay - Charlie Brown VH1 HD 1080i<br>
Coldplay - Fix You VH1 HD 1080i<br>
<b>Coldplay - S</b>trawberry Swing [Any Channel In 1080i]<br>
Coldplay - Paradise VH1 HD 1080i<br>
Coldplay - The Scientist VH1 HD 1080i<br>
Coldplay - Every Teardrop Is a Waterfall VH1 HD 1080i<br>
Green Day - 21 Guns MTV Live HD Or VH1 HD 1080i<br>
Miguel Bose - Si tu No vuelves MTV HD 1080i<br>
Of Monster and Man - Little Talks [Any Channel in 1080i]<br>
Harry Styles - Watermelon Sugar VH1 HD 1080i<br>
Harry Styles - Golden VH1 HD 1080i<br>
Harry Styles - As It Was [Any Channel in 1080i]<br>
Harry Styles - Adore You [Any Channel in 1080i]<br>
Harry Styles - Sign of The Times VH1 HD 1080i<br>
Elle King - Ex's &amp; Oh's VH1 HD, MTV HD or MTV LIVE HD 1080i<br>
Awolnation - Not Your Fault VH1 HD 1080i<br>
Bruno Mars - It Will Rain VH1 HD 1080i<br>
Foo Fighters - Walk [Any Channel in 1080i]<br>
Lily Allen - Smile <b>[Any Channel in 1080i] MTV HD</b><br>
Hoobastank - The Reason VH1 HD 1080i<br>
Gorillaz - Clint Eastwood VH1 HD 1080i<br>
Gorillaz - Dare VH1 HD 1080i<br>
Gorillaz - El Mañana VH1 HD 1080i<br>
Gorillaz - Stylo VH1 HD 1080i<br>
Gorillaz - Feel Good Inc. VH1 HD 1080i<br>
Ellie Goulding - Love Me Like You Do TELEHIT HD or VH1 HD 1080i</b><br>
<a href="https://sharemania.us/posts/3696042/" class="internalLink"><b>Diego Torres - Penelope (DVD CLEAN)</b></a><br>
<b>Soda Stereo - Cuando Pase El Temblor MTV HD LA 1080i<br>
Ed Sheeran - Photograph VH1 HD 1080i<br>
LP - Lost On You [Any Channel in 1080i]<br>
Passenger - Let Her Go <b>[Any Channel in 1080i]</b><br>
Taylor Swift - Lover VH1 HD 1080i<br>
Taylor Swift - Blank Space VH1 HD or MTV HD 1080i<br>
<b>Lana Del Rey - Blue Jeans VH1 HD 1080i</b><br>
<b><b>Lana Del Rey - Sumertime Sadness [Any Channel In 1080i]</b><br>
<b><b>Foster The People - Pumped Up Kicks <b>[Any Channel In 1080i]</b></b></b></b><br>
Madonna - Oh Father VH1 HD 1080i</b><br>
<b>Madonna - Live To Tell MTV HD 1080i</b><br>
<b>Florence &amp; The Machine - Dog Days Are Over MTV HD 1080i</b><br>
<b><b>Slipknot - Duality MTV HD 1080i</b><br>
The Weeknd - Save Your Tears VH1 HD or MTV HD 1080i</b><br>
<b><b>The Weeknd - Blinding Lights <b>VH1 HD or MTV HD 1080i</b></b></b><br>
<b><b>Ed Sheeran - Perfect VH1 HD 1080i<br>
Ed Sheeran - Thinking Out Loud VH1 HD 1080i<br>
Harold Faltermeyer &amp; Steve - Top Gun Anthem PARAMOUNT HD 1080i<br>
Kenny Loggins - Danger Zone PARAMOUNT HD 1080i</b><br>
Adele - Set Fire To the Rain <b>[Any Channel In 1080i]</b></b><br>
<b>Britney Spears - Toxic VH1 HD 1080i</b><br>
<b>James Blunt - You're Beautiful <b>VH1 HD 1080i</b><br>
<b>Christina Perri - A Thousand Years VH1 HD 1080i<br>
Rihanna - Diamonds VH1 HD 1080i<br>
Gotye - Somebody That I Used To Know VH1 HD 1080i</b></b><br>
<br>
<div class="ToggleTriggerAnchor bbCodeSpoilerContainer">
<button type="button" class="button bbCodeSpoilerButton ToggleTrigger Tooltip JsOnly" data-target="> .SpoilerTarget"><span>Spoiler: <span class="SpoilerTitle">MediaInfo</span></span></button>
<div class="SpoilerTarget bbCodeSpoilerText">Video<br>
ID : 151 (0x97)<br>
Menu ID : 31002 (0x791A)<br>
Format : AVC<br>
Format/Info : Advanced Video Codec<br>
Format profile : High@L4<br>
Format settings : CABAC / 4 Ref Frames<br>
Format settings, CABAC : Yes<br>
Format settings, Reference frames : 4 frames<br>
Codec ID : 27<br>
Duration : 59 min 1 s<br>
Bit rate : 4 537 kb/s<br>
Width : 1 920 pixels<br>
Height : 1 080 pixels<br>
Display aspect ratio : 16:9<br>
Frame rate : 25.000 FPS<br>
Standard : Component<br>
Color space : YUV<br>
Chroma subsampling : 4:2:0<br>
Bit depth : 8 bits<br>
Scan type : MBAFF<br>
Scan type, store method : Separated fields<br>
Scan order : Top Field First<br>
Bits/(Pixel*Frame) : 0.088<br>
Stream size : 1.87 GiB (84%)<br>
Encryption : Encrypted<br>
Color range : Limited<br>
Color primaries : BT.709<br>
Transfer characteristics : BT.709<br>
Matrix coefficients : BT.709<br>
<br>
Audio #1<br>
ID : 161 (0xA1)<br>
Menu ID : 31002 (0x791A)<br>
Format : AC-3<br>
Format/Info : Audio Coding 3<br>
Commercial name : Dolby Digital<br>
Codec ID : 6<br>
Duration : 59 min 2 s<br>
Bit rate mode : Constant<br>
Bit rate : 448 kb/s<br>
Channel(s) : 2 channels<br>
Channel layout : L R<br>
Sampling rate : 48.0 kHz<br>
Frame rate : 31.250 FPS (1536 SPF)<br>
Compression mode : Lossy<br>
Delay relative to video : 297 ms<br>
Stream size : 189 MiB (8%)<br>
Language : Czech<br>
Service kind : Complete Main<br>
Encryption : Encrypted<br>
<br>
Audio #2<br>
ID : 162 (0xA2)<br>
Menu ID : 31002 (0x791A)<br>
Format : MPEG Audio<br>
Format version : Version 1<br>
Format profile : Layer 2<br>
Format settings : Joint stereo<br>
Codec ID : 3<br>
Duration : 59 min 2 s<br>
Bit rate mode : Constant<br>
Bit rate : 128 kb/s<br>
Channel(s) : 2 channels<br>
Sampling rate : 48.0 kHz<br>
Frame rate : 41.667 FPS (1152 SPF)<br>
Compression mode : Lossy<br>
Delay relative to video : 294 ms<br>
Stream size : 54.1 MiB (2%)<br>
Language : qaa<br>
Encryption : Encrypted<br>
<br>
Other<br>
ID : 170 (0xAA)-100<br>
Menu ID : 31002 (0x791A)<br>
Format : Teletext<br>
Language : Czech</div>
</div><br>
<div class="ToggleTriggerAnchor bbCodeSpoilerContainer">
<button type="button" class="button bbCodeSpoilerButton ToggleTrigger Tooltip JsOnly" data-target="> .SpoilerTarget"><span>Spoiler: <span class="SpoilerTitle">Tracklist</span></span></button>
<div class="SpoilerTarget bbCodeSpoilerText">the police - every breath you take<br>
sting - if you love somebody set them free<br>
the jam - going underground<br>
paul weller - the changingman<br>
take that - back for good<br>
robbie williams - let me entertain you<br>
the supremes - baby love<br>
diana ross - i will survive<br>
10cc - i'm not in love<br>
godley &amp; creme - wedding bells<br>
wham - wham rap<br>
george michael - a different corner<br>
eurythmics - sweet dreams<br>
annie lennox - why<br>
genesis - turn it on again<br>
phil collins - in the air tonight<br>
sonny and cher - i got you babe <br>
cher - believe</div>
</div><br>
<div class="bbCodeBlock bbCodeVfcHH HiddenContent">
<div class="attribution type">Hidden Content:</div>
<blockquote>You must either reply or click 'Like' to see the hidden information contained here.</blockquote>
</div><b>Please help me find the videos I need to continue sharing content...</b>
<div class="messageTextEndMarker">&nbsp;</div>
</blockquote>
</article>]]></description>
                <author><![CDATA[ar55541]]></author>
                </item>

                </channel></rss>